<?xml version="1.0" standalone="no"?>
<!DOCTYPE svg PUBLIC "-//W3C//DTD SVG 20010904//EN"
 "http://www.w3.org/TR/2001/REC-SVG-20010904/DTD/svg10.dtd">
<svg version="1.0" xmlns="http://www.w3.org/2000/svg"
 width="174.000000pt" height="174.000000pt" viewBox="0 0 174.000000 174.000000"
 preserveAspectRatio="xMidYMid meet">
<metadata>
Created by potrace 1.11, written by Peter Selinger 2001-2013
</metadata>
<g transform="translate(0.000000,174.000000) scale(0.100000,-0.100000)"
fill="#000000" stroke="none">
<path d="M179 1659 c-49 -29 -69 -66 -69 -129 0 -96 54 -150 149 -150 98 0
151 52 151 149 0 65 -26 112 -74 135 -47 22 -113 20 -157 -5z"/>
<path d="M960 1662 c-95 -47 -108 -174 -26 -252 40 -36 137 -41 186 -8 72 48
90 148 40 218 -41 58 -131 77 -200 42z"/>
<path d="M130 937 l0 -133 103 -49 c116 -55 321 -154 577 -277 96 -46 246
-117 332 -158 86 -41 156 -76 154 -77 -1 -2 -131 2 -287 8 -156 5 -417 9 -579
7 l-295 -3 -3 -99 c-2 -58 1 -102 7 -105 14 -9 1434 -7 1448 2 8 5 11 44 10
130 l-2 122 -80 40 c-75 37 -205 100 -555 268 -384 184 -533 258 -529 261 2 2
58 0 124 -5 66 -5 327 -8 580 -7 l460 3 0 100 0 100 -732 3 -733 2 0 -133z"/>
</g>
</svg>
